HIERARCHY
ROOT Hips
{
    OFFSET 0.000000 0.000000 0.000000
    CHANNELS 6 Xposition Yposition Zposition Zrotation Xrotation Yrotation
    JOINT Spine
    {
        OFFSET -0.000000 8.267054 0.000000
        CHANNELS 3 Zrotation Xrotation Yrotation
        JOINT Spine1
        {
            OFFSET -0.000000 23.684998 0.000000
            CHANNELS 3 Zrotation Xrotation Yrotation
            JOINT Neck
            {
                OFFSET -0.000000 23.587730 2.144339
                CHANNELS 3 Zrotation Xrotation Yrotation
                JOINT Head
                {
                    OFFSET -0.000000 14.114483 -2.016355
                    CHANNELS 3 Zrotation Xrotation Yrotation
                    End Site
                    {
                        OFFSET -0.000000 25.204432 0.000000
                    }
                }
            }
            JOINT LeftShoulder
            {
                OFFSET 4.070090 22.062094 -0.247321
                CHANNELS 3 Zrotation Xrotation Yrotation
                JOINT LeftArm
                {
                    OFFSET 10.395479 0.000000 0.000000
                    CHANNELS 3 Zrotation Xrotation Yrotation
                    JOINT LeftForeArm
                    {
                        OFFSET 37.713577 0.000000 0.000000
                        CHANNELS 3 Zrotation Xrotation Yrotation
                        JOINT LeftHand
                        {
                            OFFSET 20.284107 0.000000 0.000000
                            CHANNELS 3 Zrotation Xrotation Yrotation
                            End Site
                            {
                                OFFSET 15.122660 0.000000 0.000000
                            }
                        }
                    }
                }
            }
            JOINT RightShoulder
            {
                OFFSET -3.979272 22.062094 -0.247321
                CHANNELS 3 Zrotation Xrotation Yrotation
                JOINT RightArm
                {
                    OFFSET -10.395479 0.000000 0.000000
                    CHANNELS 3 Zrotation Xrotation Yrotation
                    JOINT RightForeArm
                    {
                        OFFSET -37.713577 0.000000 0.000000
                        CHANNELS 3 Zrotation Xrotation Yrotation
                        JOINT RightHand
                        {
                            OFFSET -20.284107 0.000000 0.000000
                            CHANNELS 3 Zrotation Xrotation Yrotation
                            End Site
                            {
                                OFFSET -15.122660 0.000000 0.000000
                            }
                        }
                    }
                }
            }
        }
    }
    JOINT LeftUpLeg
    {
        OFFSET 10.081773 0.000000 0.000000
        CHANNELS 3 Zrotation Xrotation Yrotation
        JOINT LeftLeg
        {
            OFFSET -0.000000 -36.382099 0.000000
            CHANNELS 3 Zrotation Xrotation Yrotation
            JOINT LeftFoot
            {
                OFFSET -0.000000 -49.182560 0.000000
                CHANNELS 3 Zrotation Xrotation Yrotation
                JOINT LeftToeBase
                {
                    OFFSET -0.000000 -6.553152 15.122660
                    CHANNELS 3 Zrotation Xrotation Yrotation
                    End Site
                    {
                        OFFSET -0.000000 0.000000 4.032709
                    }
                }
            }
        }
    }
    JOINT RightUpLeg
    {
        OFFSET -10.081773 0.000000 0.000000
        CHANNELS 3 Zrotation Xrotation Yrotation
        JOINT RightLeg
        {
            OFFSET -0.000000 -36.382099 0.000000
            CHANNELS 3 Zrotation Xrotation Yrotation
            JOINT RightFoot
            {
                OFFSET -0.000000 -49.182560 0.000000
                CHANNELS 3 Zrotation Xrotation Yrotation
                JOINT RightToeBase
                {
                    OFFSET -0.000000 -6.553152 15.122660
                    CHANNELS 3 Zrotation Xrotation Yrotation
                    End Site
                    {
                        OFFSET -0.000000 0.000000 4.032709
                    }
                }
            }
        }
    }
}
MOTION
Frames:    11
Frame Time:    0.008333
61.998505    90.523926    3.777868    -1.744716    -2.550935    178.544693    0.687217    -3.488210    3.494050    -1.841055    1.822342    3.502408    2.525556    24.303545    -2.043355    1.955910    -6.726433    -1.538437    6.412252    9.704311    -6.069628    -58.846786    64.401840    -21.141506    -1.010831    -16.053068    -22.320246    -4.130085    -16.366138    3.504414    -3.434614    7.808924    3.707357    62.679970    58.127068    15.164759    1.898373    -10.507266    21.679737    12.249125    -11.177098    -2.965031    -7.314369    -34.868763    -11.879885    -0.215746    20.148434    19.154898    1.940661    -2.033918    -6.997863    0.000000    0.000000    0.000000    2.022433    3.702449    1.616583    -4.959508    17.072847    17.613686    3.041746    -20.326168    -11.943096    0.000000    0.000000    0.000000    
62.028492    90.416786    3.359683    -1.681275    -2.568439    178.586029    0.749470    -3.467728    3.494313    -1.780803    1.857290    3.500504    2.589447    24.311615    -2.018530    1.891650    -6.875585    -1.517859    6.398487    9.741671    -6.108058    -58.849987    64.605736    -21.200544    -1.024442    -16.001486    -22.313519    -4.245669    -16.319441    3.473031    -3.397566    7.789110    3.719111    62.386932    58.209499    15.369794    1.925434    -10.348218    21.687761    12.156784    -11.011134    -2.868262    -7.353049    -34.971970    -11.885765    0.092471    18.762465    18.659393    1.914814    -1.900927    -6.855704    0.000000    0.000000    0.000000    2.133282    3.934259    1.576296    -5.052756    17.559668    16.884323    3.088279    -20.616833    -11.449110    0.000000    0.000000    0.000000    
62.062061    90.300690    2.925872    -1.599360    -2.577409    178.643097    0.817785    -3.440316    3.485804    -1.711577    1.892662    3.489501    2.661070    24.326702    -1.991758    1.830004    -7.024532    -1.494166    6.387292    9.777476    -6.156286    -58.805843    64.842949    -21.307379    -1.032490    -15.949680    -22.286224    -4.400986    -16.271597    3.421127    -3.348918    7.773677    3.720018    62.093079    58.253735    15.577627    1.937658    -10.186431    21.666225    12.061535    -10.838749    -2.766960    -7.377745    -35.120529    -11.870992    0.363494    17.546524    18.256489    1.878547    -1.782647    -6.772216    0.000000    0.000000    0.000000    2.265149    4.173585    1.520878    -5.143758    18.085670    16.194992    3.126569    -20.927004    -10.990499    0.000000    0.000000    0.000000    
62.099171    90.175461    2.474344    -1.502361    -2.578383    178.710037    0.888637    -3.406883    3.471042    -1.632667    1.929491    3.472105    2.736243    24.351290    -1.961450    1.775203    -7.179080    -1.464895    6.378594    9.808236    -6.211282    -58.717781    65.111259    -21.459936    -1.035878    -15.894052    -22.236303    -4.600053    -16.218899    3.341172    -3.291454    7.760407    3.711677    61.800827    58.259457    15.789228    1.935701    -10.022333    21.615248    11.971707    -10.661501    -2.669175    -7.385277    -35.317226    -11.829414    0.593571    16.506006    17.936796    1.838313    -1.672072    -6.715496    0.000000    0.000000    0.000000    2.414052    4.420190    1.455897    -5.231492    18.651007    15.518826    3.172087    -21.255701    -10.538526    0.000000    0.000000    0.000000    
62.138290    90.044800    2.015226    -1.396784    -2.570800    178.778641    0.957518    -3.368816    3.453257    -1.546734    1.968375    3.451665    2.809172    24.390839    -1.926177    1.731647    -7.346978    -1.427762    6.371161    9.830196    -6.269336    -58.595554    65.398659    -21.646008    -1.033130    -15.833256    -22.164751    -4.842360    -16.159243    3.228580    -3.229991    7.748701    3.696862    61.516651    58.227417    16.005062    1.924300    -9.861026    21.530472    11.893087    -10.485627    -2.576583    -7.374784    -35.553768    -11.750858    0.781157    15.663969    17.672081    1.809838    -1.562918    -6.646388    0.000000    0.000000    0.000000    2.571582    4.669663    1.389300    -5.313934    19.238462    14.858788    3.236331    -21.592466    -10.088727    0.000000    0.000000    0.000000    
62.178909    89.908752    1.544554    -1.285015    -2.553037    178.844452    1.024711    -3.325985    3.434287    -1.456403    2.011362    3.430080    2.878039    24.453051    -1.884705    1.700667    -7.541968    -1.380903    6.362988    9.845912    -6.329319    -58.440861    65.698494    -21.862444    -1.019543    -15.764449    -22.072933    -5.131085    -16.089073    3.090799    -3.165663    7.738881    3.679097    61.239868    58.158703    16.228752    1.909770    -9.703174    21.403984    11.813627    -10.311183    -2.475803    -7.345129    -35.824722    -11.621258    0.930187    15.009206    17.443331    1.813428    -1.455527    -6.553323    0.000000    0.000000    0.000000    2.735232    4.927611    1.325020    -5.392588    19.846704    14.211945    3.328829    -21.936655    -9.637441    0.000000    0.000000    0.000000    
62.220745    89.762840    1.042104    -1.169069    -2.524532    178.903046    1.089977    -3.280407    3.416813    -1.361833    2.063057    3.410132    2.943831    24.535143    -1.837915    1.682778    -7.762023    -1.325196    6.352417    9.857924    -6.393709    -58.250782    66.012039    -22.113096    -0.993212    -15.682793    -21.958473    -5.472635    -16.003622    2.941107    -3.097653    7.729440    3.657770    60.968498    58.051968    16.462397    1.893014    -9.545450    21.233448    11.721881    -10.134827    -2.367228    -7.296231    -36.133366    -11.419244    1.048289    14.517488    17.229836    1.866475    -1.346868    -6.432424    0.000000    0.000000    0.000000    2.902537    5.206077    1.267251    -5.469482    20.495386    13.557472    3.460781    -22.299742    -9.168344    0.000000    0.000000    0.000000    
62.259281    89.620827    0.550415    -1.060971    -2.486484    178.943481    1.148939    -3.236282    3.405757    -1.274325    2.119830    3.396863    3.001045    24.609968    -1.795035    1.677376    -7.957013    -1.272182    6.340618    9.867495    -6.455473    -58.046936    66.303612    -22.371590    -0.959341    -15.596337    -21.834299    -5.828318    -15.911718    2.797816    -3.033434    7.721329    3.634764    60.728958    57.921833    16.682770    1.873210    -9.401267    21.042633    11.632877    -9.972814    -2.273592    -7.230535    -36.439125    -11.155249    1.133505    14.204508    17.027889    1.954549    -1.248901    -6.296384    0.000000    0.000000    0.000000    3.056028    5.485104    1.226459    -5.538589    21.122120    12.948189    3.595372    -22.635639    -8.731956    0.000000    0.000000    0.000000    
62.297024    89.471184    0.025378    -0.954771    -2.437690    178.966431    1.205906    -3.191257    3.401466    -1.189606    2.184794    3.390551    3.054050    24.676144    -1.754460    1.683569    -8.130962    -1.219846    6.326227    9.876014    -6.518692    -57.818470    66.588615    -22.652685    -0.920786    -15.494480    -21.689734    -6.227779    -15.802752    2.638290    -2.968010    7.715271    3.609030    60.501316    57.759224    16.909439    1.849047    -9.257304    20.815723    11.539678    -9.810594    -2.188189    -7.145517    -36.761814    -10.801484    1.199642    14.028253    16.823975    2.066957    -1.161309    -6.153780    0.000000    0.000000    0.000000    3.204408    5.789558    1.201705    -5.605774    21.776340    12.326103    3.716963    -22.962685    -8.300207    0.000000    0.000000    0.000000    
62.331192    89.320885    -0.514060    -0.858083    -2.383200    178.969971    1.258277    -3.149962    3.404946    -1.114604    2.253430    3.392253    3.100138    24.736259    -1.717348    1.701303    -8.283740    -1.169722    6.309363    9.883657    -6.580005    -57.580982    66.846527    -22.937452    -0.885920    -15.377813    -21.531445    -6.648000    -15.678556    2.470218    -2.904978    7.711490    3.580702    60.295979    57.576614    17.133644    1.823594    -9.120253    20.560459    11.442442    -9.655499    -2.110697    -7.049775    -37.080685    -10.365021    1.250689    13.978043    16.642910    2.194443    -1.095045    -6.041492    0.000000    0.000000    0.000000    3.336280    6.107520    1.194924    -5.666870    22.427345    11.715229    3.856968    -23.274904    -7.873099    0.000000    0.000000    0.000000    
62.360657    89.170418    -1.072696    -0.773755    -2.326438    178.950775    1.306153    -3.115901    3.418144    -1.052735    2.324444    3.403964    3.141689    24.793436    -1.683354    1.727896    -8.419100    -1.121444    6.290192    9.891863    -6.638186    -57.346046    67.074173    -23.214827    -0.850980    -15.246310    -21.361494    -7.081220    -15.539127    2.311264    -2.844015    7.710775    3.548651    60.109810    57.379597    17.359232    1.804372    -8.995300    20.278624    11.324201    -9.514245    -2.045648    -6.945996    -37.386536    -9.842165    1.296818    14.024927    16.460878    2.334383    -1.051735    -5.955922    0.000000    0.000000    0.000000    3.445618    6.440068    1.209405    -5.719133    23.073776    11.113741    4.047045    -23.578838    -7.434253    0.000000    0.000000    0.000000    
